{
  "accessors": [
    {
      "bufferView": 2,
      "componentType": 5126,
      "count": 65532,
      "max": [
        0.6535298228263855,
        0.8351218700408936,
        0.4021565914154053
      ],
      "min": [
        -0.6039471626281738,
        -0.9504281878471375,
        -0.1150212362408638
      ],
      "type": "VEC3"
    },
    {
      "bufferView": 2,
      "byteOffset": 786384,
      "componentType": 5126,
      "count": 65532,
      "max": [
        0.9999380111694336,
        0.9917572140693665,
        1.0
      ],
      "min": [
        -0.9978986382484436,
        -1.0,
        -0.6387265920639038
      ],
      "type": "VEC3"
    },
    {
      "bufferView": 3,
      "componentType": 5126,
      "count": 65532,
      "max": [
        0.9999962449073792,
        0.9999955296516418,
        0.9982314705848694,
        1.0
      ],
      "min": [
        -0.9999983906745911,
        -0.999979555606842,
        -0.9998823404312134,
        -1.0
      ],
      "type": "VEC4"
    },
    {
      "bufferView": 1,
      "componentType": 5126,
      "count": 65532,
      "max": [
        0.9920995831489563,
        0.9997215867042542
      ],
      "min": [
        0.0001264024613192305,
        0.006613194476813078
      ],
      "type": "VEC2"
    },
    {
      "bufferView": 1,
      "byteOffset": 524256,
      "componentType": 5126,
      "count": 65532,
      "max": [
        0.9920995831489563,
        0.9997215867042542
      ],
      "min": [
        0.0001264024613192305,
        0.006613194476813078
      ],
      "type": "VEC2"
    },
    {
      "bufferView": 1,
      "byteOffset": 1048512,
      "componentType": 5126,
      "count": 65532,
      "max": [
        0.9920995831489563,
        0.9997215867042542
      ],
      "min": [
        0.0001264024613192305,
        0.006613194476813078
      ],
      "type": "VEC2"
    },
    {
      "bufferView": 1,
      "byteOffset": 1572768,
      "componentType": 5126,
      "count": 65532,
      "max": [
        0.9920995831489563,
        0.9997215867042542
      ],
      "min": [
        0.0001264024613192305,
        0.006613194476813078
      ],
      "type": "VEC2"
    },
    {
      "bufferView": 1,
      "byteOffset": 2097024,
      "componentType": 5126,
      "count": 65532,
      "max": [
        0.9920995831489563,
        0.9997215867042542
      ],
      "min": [
        0.0001264024613192305,
        0.006613194476813078
      ],
      "type": "VEC2"
    },
    {
      "bufferView": 0,
      "componentType": 5125,
      "count": 343308,
      "type": "SCALAR"
    },
    {
      "bufferView": 2,
      "byteOffset": 1572768,
      "componentType": 5126,
      "count": 65532,
      "max": [
        0.7774345874786377,
        0.9437268972396851,
        0.20047810673713684
      ],
      "min": [
        -0.7717807292938232,
        -0.94764643907547,
        -0.40374600887298584
      ],
      "type": "VEC3"
    },
    {
      "bufferView": 2,
      "byteOffset": 2359152,
      "componentType": 5126,
      "count": 65532,
      "max": [
        0.9959942102432251,
        0.9999380111694336,
        0.9998451471328735
      ],
      "min": [
        -1.0,
        -1.0,
        -1.0
      ],
      "type": "VEC3"
    },
    {
      "bufferView": 3,
      "byteOffset": 1048512,
      "componentType": 5126,
      "count": 65532,
      "max": [
        1.0,
        0.9999983310699463,
        0.9999670386314392,
        1.0
      ],
      "min": [
        -0.9999988675117493,
        -1.0,
        -0.9996739029884338,
        -1.0
      ],
      "type": "VEC4"
    },
    {
      "bufferView": 1,
      "byteOffset": 2621280,
      "componentType": 5126,
      "count": 65532,
      "max": [
        0.9879653453826904,
        0.9999657273292542
      ],
      "min": [
        0.0001264024613192305,
        0.0012410811614245176
      ],
      "type": "VEC2"
    },
    {
      "bufferView": 1,
      "byteOffset": 3145536,
      "componentType": 5126,
      "count": 65532,
      "max": [
        0.9879653453826904,
        0.9999657273292542
      ],
      "min": [
        0.0001264024613192305,
        0.0012410811614245176
      ],
      "type": "VEC2"
    },
    {
      "bufferView": 1,
      "byteOffset": 3669792,
      "componentType": 5126,
      "count": 65532,
      "max": [
        0.9879653453826904,
        0.9999657273292542
      ],
      "min": [
        0.0001264024613192305,
        0.0012410811614245176
      ],
      "type": "VEC2"
    },
    {
      "bufferView": 1,
      "byteOffset": 4194048,
      "componentType": 5126,
      "count": 65532,
      "max": [
        0.9879653453826904,
        0.9999657273292542
      ],
      "min": [
        0.0001264024613192305,
        0.0012410811614245176
      ],
      "type": "VEC2"
    },
    {
      "bufferView": 1,
      "byteOffset": 4718304,
      "componentType": 5126,
      "count": 65532,
      "max": [
        0.9879653453826904,
        0.9999657273292542
      ],
      "min": [
        0.0001264024613192305,
        0.0012410811614245176
      ],
      "type": "VEC2"
    },
    {
      "bufferView": 0,
      "byteOffset": 1373232,
      "componentType": 5125,
      "count": 344418,
      "type": "SCALAR"
    },
    {
      "bufferView": 2,
      "byteOffset": 3145536,
      "componentType": 5126,
      "count": 65532,
      "max": [
        0.7870548367500305,
        0.9484790563583374,
        0.35996636748313904
      ],
      "min": [
        -0.7889350056648254,
        -0.9503122568130493,
        -0.3969074785709381
      ],
      "type": "VEC3"
    },
    {
      "bufferView": 2,
      "byteOffset": 3931920,
      "componentType": 5126,
      "count": 65532,
      "max": [
        1.0,
        0.9999690055847168,
        0.9997521042823792
      ],
      "min": [
        -1.0,
        -1.0,
        -1.0
      ],
      "type": "VEC3"
    },
    {
      "bufferView": 3,
      "byteOffset": 2097024,
      "componentType": 5126,
      "count": 65532,
      "max": [
        0.9999939203262329,
        0.9999862909317017,
        0.9999934434890747,
        1.0
      ],
      "min": [
        -1.0,
        -0.9999803304672241,
        -0.999998152256012,
        -1.0
      ],
      "type": "VEC4"
    },
    {
      "bufferView": 1,
      "byteOffset": 5242560,
      "componentType": 5126,
      "count": 65532,
      "max": [
        0.9959906339645386,
        0.9999657273292542
      ],
      "min": [
        0.0001264024613192305,
        2.014636993408203e-05
      ],
      "type": "VEC2"
    },
    {
      "bufferView": 1,
      "byteOffset": 5766816,
      "componentType": 5126,
      "count": 65532,
      "max": [
        0.9959906339645386,
        0.9999657273292542
      ],
      "min": [
        0.0001264024613192305,
        2.014636993408203e-05
      ],
      "type": "VEC2"
    },
    {
      "bufferView": 1,
      "byteOffset": 6291072,
      "componentType": 5126,
      "count": 65532,
      "max": [
        0.9959906339645386,
        0.9999657273292542
      ],
      "min": [
        0.0001264024613192305,
        2.014636993408203e-05
      ],
      "type": "VEC2"
    },
    {
      "bufferView": 1,
      "byteOffset": 6815328,
      "componentType": 5126,
      "count": 65532,
      "max": [
        0.9959906339645386,
        0.9999657273292542
      ],
      "min": [
        0.0001264024613192305,
        2.014636993408203e-05
      ],
      "type": "VEC2"
    },
    {
      "bufferView": 1,
      "byteOffset": 7339584,
      "componentType": 5126,
      "count": 65532,
      "max": [
        0.9959906339645386,
        0.9999657273292542
      ],
      "min": [
        0.0001264024613192305,
        2.014636993408203e-05
      ],
      "type": "VEC2"
    },
    {
      "bufferView": 0,
      "byteOffset": 2750904,
      "componentType": 5125,
      "count": 330018,
      "type": "SCALAR"
    },
    {
      "bufferView": 2,
      "byteOffset": 4718304,
      "componentType": 5126,
      "count": 12274,
      "max": [
        0.7351284623146057,
        0.8864687085151672,
        0.33736446499824524
      ],
      "min": [
        -0.735038161277771,
        -0.948110044002533,
        0.027080964297056198
      ],
      "type": "VEC3"
    },
    {
      "bufferView": 2,
      "byteOffset": 4865592,
      "componentType": 5126,
      "count": 12274,
      "max": [
        0.9986079335212708,
        0.927840530872345,
        0.9999690055847168
      ],
      "min": [
        -0.9994733929634094,
        -0.9998760223388672,
        -0.6389849185943604
      ],
      "type": "VEC3"
    },
    {
      "bufferView": 3,
      "byteOffset": 3145536,
      "componentType": 5126,
      "count": 12274,
      "max": [
        0.9999619126319885,
        0.999953031539917,
        0.9999690055847168,
        1.0
      ],
      "min": [
        -0.9999673962593079,
        -0.9999714493751526,
        -0.9954968690872192,
        -1.0
      ],
      "type": "VEC4"
    },
    {
      "bufferView": 1,
      "byteOffset": 7863840,
      "componentType": 5126,
      "count": 12274,
      "max": [
        0.9923427700996399,
        0.9997215867042542
      ],
      "min": [
        0.00036959274439141154,
        0.011985307559370995
      ],
      "type": "VEC2"
    },
    {
      "bufferView": 1,
      "byteOffset": 7962032,
      "componentType": 5126,
      "count": 12274,
      "max": [
        0.9923427700996399,
        0.9997215867042542
      ],
      "min": [
        0.00036959274439141154,
        0.011985307559370995
      ],
      "type": "VEC2"
    },
    {
      "bufferView": 1,
      "byteOffset": 8060224,
      "componentType": 5126,
      "count": 12274,
      "max": [
        0.9923427700996399,
        0.9997215867042542
      ],
      "min": [
        0.00036959274439141154,
        0.011985307559370995
      ],
      "type": "VEC2"
    },
    {
      "bufferView": 1,
      "byteOffset": 8158416,
      "componentType": 5126,
      "count": 12274,
      "max": [
        0.9923427700996399,
        0.9997215867042542
      ],
      "min": [
        0.00036959274439141154,
        0.011985307559370995
      ],
      "type": "VEC2"
    },
    {
      "bufferView": 1,
      "byteOffset": 8256608,
      "componentType": 5126,
      "count": 12274,
      "max": [
        0.9923427700996399,
        0.9997215867042542
      ],
      "min": [
        0.00036959274439141154,
        0.011985307559370995
      ],
      "type": "VEC2"
    },
    {
      "bufferView": 0,
      "byteOffset": 4070976,
      "componentType": 5125,
      "count": 54264,
      "type": "SCALAR"
    }
  ],
  "asset": {
    "extras": {
      "author": "Tulio Portela (https://sketchfab.com/TulioPortela)",
      "license": "CC-BY-4.0 (http://creativecommons.org/licenses/by/4.0/)",
      "source": "https://sketchfab.com/3d-models/camisa-internacional-retro-free-b67a2c082f3d414ab50cd8f33a04a600",
      "title": "Camisa Internacional Retro Free"
    },
    "generator": "Sketchfab-17.15.0",
    "version": "2.0"
  },
  "bufferViews": [
    {
      "buffer": 0,
      "byteLength": 4288032,
      "name": "floatBufferViews",
      "target": 34963
    },
    {
      "buffer": 0,
      "byteLength": 8354800,
      "byteOffset": 4288032,
      "byteStride": 8,
      "name": "floatBufferViews",
      "target": 34962
    },
    {
      "buffer": 0,
      "byteLength": 5012880,
      "byteOffset": 12642832,
      "byteStride": 12,
      "name": "floatBufferViews",
      "target": 34962
    },
    {
      "buffer": 0,
      "byteLength": 3341920,
      "byteOffset": 17655712,
      "byteStride": 16,
      "name": "floatBufferViews",
      "target": 34962
    }
  ],
  "buffers": [
    {
      "byteLength": 20997632,
      "uri": "scene.bin"
    }
  ],
  "images": [
    {
      "uri": "textures/material_0_baseColor.png"
    },
    {
      "uri": "textures/material_0_metallicRoughness.png"
    },
    {
      "uri": "textures/material_0_emissive.png"
    },
    {
      "uri": "textures/material_0_normal.png"
    }
  ],
  "materials": [
    {
      "doubleSided": true,
      "emissiveFactor": [
        1.0,
        1.0,
        1.0
      ],
      "emissiveTexture": {
        "index": 2,
        "texCoord": 2
      },
      "name": "material_0",
      "normalTexture": {
        "index": 3,
        "texCoord": 3
      },
      "pbrMetallicRoughness": {
        "baseColorTexture": {
          "index": 0
        },
        "metallicRoughnessTexture": {
          "index": 1,
          "texCoord": 1
        }
      }
    }
  ],
  "meshes": [
    {
      "name": "Object_0",
      "primitives": [
        {
          "attributes": {
            "NORMAL": 1,
            "POSITION": 0,
            "TANGENT": 2,
            "TEXCOORD_0": 3,
            "TEXCOORD_1": 4,
            "TEXCOORD_2": 5,
            "TEXCOORD_3": 6,
            "TEXCOORD_4": 7
          },
          "indices": 8,
          "material": 0,
          "mode": 4
        }
      ]
    },
    {
      "name": "Object_1",
      "primitives": [
        {
          "attributes": {
            "NORMAL": 10,
            "POSITION": 9,
            "TANGENT": 11,
            "TEXCOORD_0": 12,
            "TEXCOORD_1": 13,
            "TEXCOORD_2": 14,
            "TEXCOORD_3": 15,
            "TEXCOORD_4": 16
          },
          "indices": 17,
          "material": 0,
          "mode": 4
        }
      ]
    },
    {
      "name": "Object_2",
      "primitives": [
        {
          "attributes": {
            "NORMAL": 19,
            "POSITION": 18,
            "TANGENT": 20,
            "TEXCOORD_0": 21,
            "TEXCOORD_1": 22,
            "TEXCOORD_2": 23,
            "TEXCOORD_3": 24,
            "TEXCOORD_4": 25
          },
          "indices": 26,
          "material": 0,
          "mode": 4
        }
      ]
    },
    {
      "name": "Object_3",
      "primitives": [
        {
          "attributes": {
            "NORMAL": 28,
            "POSITION": 27,
            "TANGENT": 29,
            "TEXCOORD_0": 30,
            "TEXCOORD_1": 31,
            "TEXCOORD_2": 32,
            "TEXCOORD_3": 33,
            "TEXCOORD_4": 34
          },
          "indices": 35,
          "material": 0,
          "mode": 4
        }
      ]
    }
  ],
  "nodes": [
    {
      "children": [
        1
      ],
      "matrix": [
        1.0,
        0.0,
        0.0,
        0.0,
        0.0,
        2.220446049250313e-16,
        -1.0,
        0.0,
        0.0,
        1.0,
        2.220446049250313e-16,
        0.0,
        0.0,
        0.0,
        0.0,
        1.0
      ],
      "name": "Sketchfab_model"
    },
    {
      "children": [
        2
      ],
      "name": "root"
    },
    {
      "children": [
        3
      ],
      "matrix": [
        1.0,
        0.0,
        0.0,
        0.0,
        0.0,
        2.220446049250313e-16,
        1.0,
        0.0,
        0.0,
        -1.0,
        2.220446049250313e-16,
        0.0,
        0.0,
        0.0,
        0.0,
        1.0
      ],
      "name": "GLTF_SceneRootNode"
    },
    {
      "children": [
        4
      ],
      "name": "_1"
    },
    {
      "children": [
        5,
        6,
        7,
        8
      ],
      "name": "mesh_0_0"
    },
    {
      "mesh": 0,
      "name": "Object_5"
    },
    {
      "mesh": 1,
      "name": "Object_6"
    },
    {
      "mesh": 2,
      "name": "Object_7"
    },
    {
      "mesh": 3,
      "name": "Object_8"
    }
  ],
  "samplers": [
    {
      "magFilter": 9729,
      "minFilter": 9987,
      "wrapS": 10497,
      "wrapT": 10497
    }
  ],
  "scene": 0,
  "scenes": [
    {
      "name": "Sketchfab_Scene",
      "nodes": [
        0
      ]
    }
  ],
  "textures": [
    {
      "sampler": 0,
      "source": 0
    },
    {
      "sampler": 0,
      "source": 1
    },
    {
      "sampler": 0,
      "source": 2
    },
    {
      "sampler": 0,
      "source": 3
    }
  ]
}
